<?xml version="1.0" encoding="UTF-8" standalone="no"?>
<!DOCTYPE svg PUBLIC "-//W3C//DTD SVG 20010904//EN"
              "http://www.w3.org/TR/2001/REC-SVG-20010904/DTD/svg10.dtd">

<svg xmlns="http://www.w3.org/2000/svg"
     width="5.75556in" height="1.33333in"
     viewBox="0 0 518 120">
  <path id="Imported Path"
        fill="none" stroke="black" stroke-width="1"
        d="M 164.27,52.87
           C 164.27,52.87 196.62,52.87 196.62,52.87
             196.62,52.87 196.62,64.97 196.62,64.97
             196.62,64.97 164.27,64.97 164.27,64.97
             164.27,64.97 164.27,52.87 164.27,52.87 Z
           M 165.42,80.52
           C 165.42,80.52 202.00,80.52 202.00,80.52
             202.00,80.52 202.00,93.00 202.00,93.00
             202.00,93.00 149.97,93.00 149.97,93.00
             149.97,93.00 149.97,25.80 149.97,25.80
             149.97,25.80 200.75,25.80 200.75,25.80
             200.75,25.80 200.75,38.28 200.75,38.28
             200.75,38.28 165.42,38.28 165.42,38.28
             165.42,38.28 165.42,80.52 165.42,80.52 Z
           M 226.87,93.00
           C 226.87,93.00 205.17,41.35 205.17,41.35
             205.17,41.35 220.63,41.35 220.63,41.35
             220.63,41.35 238.67,85.80 238.67,85.80
             238.67,85.80 230.99,85.80 230.99,85.80
             230.99,85.80 249.71,41.35 249.71,41.35
             249.71,41.35 264.11,41.35 264.11,41.35
             264.11,41.35 242.32,93.00 242.32,93.00
             242.32,93.00 226.87,93.00 226.87,93.00 Z
           M 294.45,93.77
           C 288.56,93.77 283.38,92.62 278.90,90.31
             274.48,88.01 271.06,84.87 268.63,80.90
             266.19,76.87 264.98,72.30 264.98,67.18
             264.98,61.99 266.16,57.42 268.53,53.45
             270.96,49.42 274.26,46.28 278.42,44.04
             282.58,41.74 287.28,40.58 292.53,40.58
             297.59,40.58 302.13,41.67 306.16,43.85
             310.26,45.96 313.49,49.03 315.86,53.06
             318.23,57.03 319.41,61.80 319.41,67.37
             319.41,67.94 319.38,68.62 319.31,69.38
             319.25,70.09 319.19,70.76 319.12,71.40
             319.12,71.40 277.17,71.40 277.17,71.40
             277.17,71.40 277.17,62.66 277.17,62.66
             277.17,62.66 311.25,62.66 311.25,62.66
             311.25,62.66 305.49,65.26 305.49,65.26
             305.49,62.57 304.95,60.23 303.86,58.25
             302.77,56.26 301.27,54.73 299.35,53.64
             297.43,52.49 295.19,51.91 292.63,51.91
             290.07,51.91 287.79,52.49 285.81,53.64
             283.89,54.73 282.39,56.30 281.30,58.34
             280.21,60.33 279.67,62.70 279.67,65.45
             279.67,65.45 279.67,67.75 279.67,67.75
             279.67,70.57 280.27,73.06 281.49,75.24
             282.77,77.35 284.53,78.98 286.77,80.14
             289.07,81.22 291.76,81.77 294.83,81.77
             297.59,81.77 299.99,81.35 302.03,80.52
             304.15,79.69 306.07,78.44 307.79,76.78
             307.79,76.78 315.76,85.42 315.76,85.42
             313.39,88.10 310.42,90.18 306.83,91.66
             303.25,93.06 299.12,93.77 294.45,93.77 Z
           M 360.77,40.58
           C 364.87,40.58 368.52,41.42 371.72,43.08
             374.98,44.68 377.54,47.18 379.40,50.57
             381.25,53.90 382.18,58.18 382.18,63.43
             382.18,63.43 382.18,93.00 382.18,93.00
             382.18,93.00 367.20,93.00 367.20,93.00
             367.20,93.00 367.20,65.74 367.20,65.74
             367.20,61.58 366.28,58.50 364.42,56.52
             362.63,54.54 360.07,53.54 356.74,53.54
             354.37,53.54 352.23,54.06 350.31,55.08
             348.45,56.04 346.98,57.54 345.89,59.59
             344.87,61.64 344.36,64.26 344.36,67.46
             344.36,67.46 344.36,93.00 344.36,93.00
             344.36,93.00 329.38,93.00 329.38,93.00
             329.38,93.00 329.38,41.35 329.38,41.35
             329.38,41.35 343.69,41.35 343.69,41.35
             343.69,41.35 343.69,55.66 343.69,55.66
             343.69,55.66 341.00,51.34 341.00,51.34
             342.85,47.88 345.51,45.22 348.96,43.37
             352.42,41.51 356.36,40.58 360.77,40.58 Z
           M 416.88,93.77
           C 410.80,93.77 406.06,92.23 402.67,89.16
             399.28,86.02 397.58,81.38 397.58,75.24
             397.58,75.24 397.58,29.93 397.58,29.93
             397.58,29.93 412.56,29.93 412.56,29.93
             412.56,29.93 412.56,75.05 412.56,75.05
             412.56,77.22 413.13,78.92 414.28,80.14
             415.44,81.29 417.00,81.86 418.99,81.86
             421.36,81.86 423.37,81.22 425.04,79.94
             425.04,79.94 429.07,90.50 429.07,90.50
             427.53,91.59 425.68,92.42 423.50,93.00
             421.39,93.51 419.18,93.77 416.88,93.77 Z
           M 389.61,54.02
           C 389.61,54.02 389.61,42.50 389.61,42.50
             389.61,42.50 425.42,42.50 425.42,42.50
             425.42,42.50 425.42,54.02 425.42,54.02
             425.42,54.02 389.61,54.02 389.61,54.02 Z
           M 437.47,93.00
           C 437.47,93.00 437.47,21.77 437.47,21.77
             437.47,21.77 452.45,21.77 452.45,21.77
             452.45,21.77 452.45,93.00 452.45,93.00
             452.45,93.00 437.47,93.00 437.47,93.00 Z
           M 472.88,112.39
           C 470.19,112.39 467.53,111.98 464.91,111.14
             462.29,110.31 460.14,109.16 458.48,107.69
             458.48,107.69 463.95,97.03 463.95,97.03
             465.10,98.06 466.41,98.86 467.89,99.43
             469.42,100.01 470.93,100.30 472.40,100.30
             474.51,100.30 476.17,99.78 477.39,98.76
             478.67,97.80 479.82,96.17 480.85,93.86
             480.85,93.86 483.53,87.53 483.53,87.53
             483.53,87.53 484.69,85.90 484.69,85.90
             484.69,85.90 503.21,41.35 503.21,41.35
             503.21,41.35 517.61,41.35 517.61,41.35
             517.61,41.35 494.29,96.17 494.29,96.17
             492.62,100.33 490.70,103.59 488.53,105.96
             486.41,108.33 484.05,109.99 481.42,110.95
             478.86,111.91 476.01,112.39 472.88,112.39 Z
           M 481.71,95.02
           C 481.71,95.02 458.67,41.35 458.67,41.35
             458.67,41.35 474.13,41.35 474.13,41.35
             474.13,41.35 491.98,84.55 491.98,84.55
             491.98,84.55 481.71,95.02 481.71,95.02 Z
           M 71.00,45.00
           C 79.28,45.00 86.00,51.72 86.00,60.00
             86.00,60.00 86.00,60.00 86.00,60.00
             86.00,68.28 79.28,75.00 71.00,75.00
             71.00,75.00 71.00,75.00 71.00,75.00
             62.72,75.00 56.00,68.28 56.00,60.00
             56.00,60.00 56.00,60.00 56.00,60.00
             56.00,51.72 62.72,45.00 71.00,45.00
             71.00,45.00 71.00,45.00 71.00,45.00 Z
           M 103.85,120.00
           C 109.15,120.00 111.85,113.64 108.17,109.83
             108.17,109.83 94.90,96.10 94.90,96.10
             91.13,92.20 85.94,90.00 80.52,90.00
             80.52,90.00 55.54,90.00 55.54,90.00
             51.91,90.00 48.36,90.99 45.25,92.85
             45.25,92.85 18.57,108.85 18.57,108.85
             13.36,111.99 15.58,120.00 21.66,120.00
             21.66,120.00 103.85,120.00 103.85,120.00 Z
           M 103.85,-0.00
           C 109.15,-0.00 111.85,6.36 108.17,10.17
             108.17,10.17 94.90,23.90 94.90,23.90
             91.13,27.80 85.94,30.00 80.52,30.00
             80.52,30.00 55.54,30.00 55.54,30.00
             51.91,30.00 48.36,29.01 45.25,27.15
             45.25,27.15 18.57,11.14 18.57,11.14
             13.36,8.01 15.58,-0.00 21.66,-0.00
             21.66,-0.00 103.85,-0.00 103.85,-0.00 Z
           M -0.00,27.66
           C -0.00,19.89 8.48,15.09 15.14,19.09
             15.14,19.09 40.29,34.17 40.29,34.17
             46.31,37.79 50.00,44.30 50.00,51.32
             50.00,51.32 50.00,68.68 50.00,68.68
             50.00,75.70 46.31,82.21 40.29,85.83
             40.29,85.83 15.14,100.91 15.14,100.91
             8.48,104.91 -0.00,100.11 -0.00,92.34
             -0.00,92.34 -0.00,27.66 -0.00,27.66 Z" />
</svg>
